<svg xmlns="http://www.w3.org/2000/svg" width="16" height="16" viewBox="0 0 16 16" fill="none">
  <!-- Settings: modern gear/cog icon -->
  <circle cx="8" cy="8" r="3" fill="#8a8a8a" stroke="#555" stroke-width="0.7"/>
  <circle cx="8" cy="8" r="1.3" fill="#e8e8e8"/>
  <!-- Gear teeth -->
  <rect x="7.1" y="0.8" width="1.8" height="2.4" rx="0.6" fill="#8a8a8a" stroke="#555" stroke-width="0.4"/>
  <rect x="7.1" y="12.8" width="1.8" height="2.4" rx="0.6" fill="#8a8a8a" stroke="#555" stroke-width="0.4"/>
  <rect x="0.8" y="7.1" width="2.4" height="1.8" rx="0.6" fill="#8a8a8a" stroke="#555" stroke-width="0.4"/>
  <rect x="12.8" y="7.1" width="2.4" height="1.8" rx="0.6" fill="#8a8a8a" stroke="#555" stroke-width="0.4"/>
  <!-- Diagonal teeth -->
  <rect x="2.2" y="2.2" width="1.8" height="2.2" rx="0.5" fill="#8a8a8a" stroke="#555" stroke-width="0.4" transform="rotate(45 3.1 3.3)"/>
  <rect x="12" y="2.2" width="1.8" height="2.2" rx="0.5" fill="#8a8a8a" stroke="#555" stroke-width="0.4" transform="rotate(-45 12.9 3.3)"/>
  <rect x="2.2" y="11.6" width="1.8" height="2.2" rx="0.5" fill="#8a8a8a" stroke="#555" stroke-width="0.4" transform="rotate(-45 3.1 12.7)"/>
  <rect x="12" y="11.6" width="1.8" height="2.2" rx="0.5" fill="#8a8a8a" stroke="#555" stroke-width="0.4" transform="rotate(45 12.9 12.7)"/>
</svg>
