<svg xmlns="http://www.w3.org/2000/svg" viewBox="0 0 1000 1000"><path d="M293 634.8L341.8 585.9 390.6 634.8 341.8 683.6ZM390.6 537.1L439.5 488.3 488.3 537.1 439.5 585.9ZM488.3 439.5L537.1 390.6 585.9 439.5 537.1 488.3ZM585.9 341.8L634.8 293 683.6 341.8 634.8 390.6ZM683.6 244.1L732.4 195.3 781.3 244.1 732.4 293ZM903.3 73.2L756.8 512.7 692.4 491.2 796.4 180.2 485.4 284.2 463.9 219.7ZM219.7 463.9L73.2 903.3 512.7 756.8 491.2 692.4 180.7 795.9 284.2 485.4ZM244.1 683.6L195.3 732.4 244.1 781.3 293 732.4Z" fill="#4f4f4f"/></svg>