<svg xmlns="http://www.w3.org/2000/svg" viewBox="0 0 1000 1000"><path d="M878.9 97.7L878.9 97.7 439.5 244.1 460.9 308.6 772 204.6 668 515.6 732.4 537.1ZM219.7 708L268.6 756.8 415 610.4 366.2 561.5ZM415 512.7L463.9 561.5 610.4 415 561.5 366.2ZM73.2 854.5L122.1 904.3 219.7 805.7 170.9 756.8ZM610.4 317.4L659.2 366.2 805.7 219.7 756.8 170.9ZM488.3 732.4L585.9 732.4 585.9 634.8 659.2 634.8 659.2 732.4 756.8 732.4 756.8 805.7 659.2 805.7 659.2 903.3 585.9 903.3 585.9 805.7 488.3 805.7Z" fill="#4f4f4f"/></svg>